<?xml version="1.0" encoding="UTF-8" standalone="no"?>
<!-- Created with Inkscape (http://www.inkscape.org/) -->

<svg
   width="741mm"
   height="512mm"
   viewBox="0 0 741 512"
   version="1.1"
   id="svg5"
   inkscape:version="1.2.2 (732a01da63, 2022-12-09)"
   sodipodi:docname="large icon.svg"
   inkscape:export-filename="large icon.png"
   inkscape:export-xdpi="50.799999"
   inkscape:export-ydpi="50.799999"
   xmlns:inkscape="http://www.inkscape.org/namespaces/inkscape"
   xmlns:sodipodi="http://sodipodi.sourceforge.net/DTD/sodipodi-0.dtd"
   xmlns="http://www.w3.org/2000/svg"
   xmlns:svg="http://www.w3.org/2000/svg">
  <sodipodi:namedview
     id="namedview7"
     pagecolor="#ffffff"
     bordercolor="#666666"
     borderopacity="1.0"
     inkscape:pageshadow="2"
     inkscape:pageopacity="1"
     inkscape:pagecheckerboard="0"
     inkscape:document-units="mm"
     showgrid="false"
     showborder="true"
     inkscape:zoom="0.37385698"
     inkscape:cx="1255.8278"
     inkscape:cy="1028.4681"
     inkscape:window-width="1920"
     inkscape:window-height="1001"
     inkscape:window-x="-32000"
     inkscape:window-y="-32000"
     inkscape:window-maximized="0"
     inkscape:current-layer="layer1"
     inkscape:showpageshadow="0"
     inkscape:deskcolor="#d1d1d1" />
  <defs
     id="defs2">
    <inkscape:path-effect
       effect="mirror_symmetry"
       start_point="63.06,82.591248"
       end_point="63.06,69.85555"
       center_point="63.06,76.223399"
       id="path-effect3621"
       is_visible="true"
       lpeversion="1.1"
       mode="free"
       discard_orig_path="false"
       fuse_paths="false"
       oposite_fuse="false"
       split_items="false"
       split_open="false"
       lpesatellites=""
       link_styles="false" />
    <inkscape:path-effect
       effect="mirror_symmetry"
       start_point="62.901657,80.698884"
       end_point="62.901657,135.17743"
       center_point="62.901657,107.93816"
       id="path-effect1722"
       is_visible="true"
       lpeversion="1.1"
       mode="free"
       discard_orig_path="false"
       fuse_paths="false"
       oposite_fuse="false"
       split_items="false"
       split_open="false"
       lpesatellites=""
       link_styles="false" />
    <inkscape:path-effect
       effect="mirror_symmetry"
       start_point="61.13491,65.678719"
       end_point="61.13491,102.02921"
       center_point="61.13491,83.853965"
       id="path-effect939"
       is_visible="true"
       lpeversion="1.1"
       mode="free"
       discard_orig_path="false"
       fuse_paths="false"
       oposite_fuse="false"
       split_items="false"
       split_open="false"
       lpesatellites=""
       link_styles="false" />
  </defs>
  <g
     inkscape:label="Layer 1"
     inkscape:groupmode="layer"
     id="layer1">
    <text
       xml:space="preserve"
       style="font-size:51.7423px;line-height:1.25;font-family:Magnolia;-inkscape-font-specification:Magnolia;letter-spacing:0px;stroke-width:0.388067"
       x="83.42585"
       y="363.57233"
       id="text7439"><tspan
         sodipodi:role="line"
         id="tspan7437"
         style="stroke-width:0.388067"
         x="83.42585"
         y="363.57233">Rapid Image Annotator</tspan></text>
    <path
       style="fill:#000000;fill-opacity:1;stroke:#000000;stroke-width:0.265;stroke-linecap:round;stroke-linejoin:round;stroke-miterlimit:4;stroke-dasharray:none;stroke-opacity:1"
       d="m 337.18041,375.03587 c 0,0 6.94479,4.56441 14.07686,0.0435"
       id="path6009"
       sodipodi:nodetypes="cc" />
    <g
       id="g591">
      <g
         id="g1047"
         transform="translate(-240.60904,22.481526)">
        <path
           id="rect977"
           style="color:#000000;fill:#000000;stroke-linecap:round;stroke-linejoin:round;stroke-dasharray:16.1443, 16.1443;stroke-dashoffset:33.4994;-inkscape-stroke:none"
           d="m 521.00903,-131.00906 v -10.53269 a 2.0180349,2.0180349 0 0 1 1.00872,-0.31161 2.0180349,2.0180349 0 0 1 2.01745,2.01745 v 5.80068 h 6.30866 a 2.0180349,2.0180349 0 0 1 2.01951,2.01745 2.0180349,2.0180349 0 0 1 -0.31212,1.00872 z m 23.77374,0 a 2.0180349,2.0180349 0 0 1 -0.31213,-1.00872 2.0180349,2.0180349 0 0 1 2.01745,-2.01745 h 16.14475 a 2.0180349,2.0180349 0 0 1 2.01745,2.01745 2.0180349,2.0180349 0 0 1 -0.31161,1.00872 z m 32.28898,0 a 2.0180349,2.0180349 0 0 1 -0.31212,-1.00872 2.0180349,2.0180349 0 0 1 2.01796,-2.01745 h 16.14424 a 2.0180349,2.0180349 0 0 1 2.01744,2.01745 2.0180349,2.0180349 0 0 1 -0.3116,1.00872 z m 32.17943,-0.16071 a 2.0180349,2.0180349 0 0 1 -0.20412,-0.84801 2.0180349,2.0180349 0 0 1 0.20412,-0.8475 z m -87.23343,-22.79293 a 2.0180349,2.0180349 0 0 1 -1.00872,-0.31212 v -19.55591 a 2.0180349,2.0180349 0 0 1 1.00872,-0.31161 2.0180349,2.0180349 0 0 1 2.01745,2.01745 v 16.14423 a 2.0180349,2.0180349 0 0 1 -2.01745,2.01796 z m 0,-32.28743 a 2.0180349,2.0180349 0 0 1 -1.00872,-0.31213 v -13.68443 h 3.02617 v 11.97704 a 2.0180349,2.0180349 0 0 1 -2.01745,2.01952 z"
           transform="scale(1,-1)" />
        <path
           id="path1039"
           style="color:#000000;fill:#000000;stroke-linecap:round;stroke-linejoin:round;stroke-dasharray:16.1443, 16.1443;stroke-dashoffset:33.4994;-inkscape-stroke:none"
           d="M 521.00903,269.03879 V 258.5061 a 2.0180349,2.0180349 0 0 1 1.00872,-0.31161 2.0180349,2.0180349 0 0 1 2.01745,2.01745 v 5.80068 h 6.30866 a 2.0180349,2.0180349 0 0 1 2.01951,2.01745 2.0180349,2.0180349 0 0 1 -0.31212,1.00872 z m 23.77374,0 a 2.0180349,2.0180349 0 0 1 -0.31213,-1.00872 2.0180349,2.0180349 0 0 1 2.01745,-2.01745 h 16.14475 a 2.0180349,2.0180349 0 0 1 2.01745,2.01745 2.0180349,2.0180349 0 0 1 -0.31161,1.00872 z m 32.28898,0 a 2.0180349,2.0180349 0 0 1 -0.31212,-1.00872 2.0180349,2.0180349 0 0 1 2.01796,-2.01745 h 16.14424 a 2.0180349,2.0180349 0 0 1 2.01744,2.01745 2.0180349,2.0180349 0 0 1 -0.3116,1.00872 z m 32.17943,-0.16071 a 2.0180349,2.0180349 0 0 1 -0.20412,-0.84801 2.0180349,2.0180349 0 0 1 0.20412,-0.8475 z m -87.23343,-22.79293 a 2.0180349,2.0180349 0 0 1 -1.00872,-0.31212 v -19.55591 a 2.0180349,2.0180349 0 0 1 1.00872,-0.31161 2.0180349,2.0180349 0 0 1 2.01745,2.01745 v 16.14423 a 2.0180349,2.0180349 0 0 1 -2.01745,2.01796 z m 0,-32.28743 a 2.0180349,2.0180349 0 0 1 -1.00872,-0.31213 v -13.68443 h 3.02617 v 11.97704 a 2.0180349,2.0180349 0 0 1 -2.01745,2.01952 z" />
      </g>
      <path
         style="fill:none;stroke:#000000;stroke-width:2.62302;stroke-linecap:butt;stroke-linejoin:miter;stroke-miterlimit:4;stroke-dasharray:none;stroke-opacity:1"
         d="m 290.88245,165.59053 v 36.90793 l 8.2347,-9.52837 c 0,0 4.25947,10.29107 5.17966,12.29276 l 5.04226,-2.37844 -4.85199,-11.8922 h 11.76918 z"
         id="path5738"
         sodipodi:nodetypes="cccccccc" />
      <g
         id="g1082"
         transform="translate(0,9.5250005)">
        <g
           id="g1720"
           style="stroke-width:2;stroke-linecap:round;stroke-linejoin:round;stroke-miterlimit:4;stroke-dasharray:none"
           class="UnoptimicedTransforms"
           inkscape:path-effect="#path-effect1722"
           transform="matrix(1.4667155,0,0,1.4667155,278.40134,75.400331)">
          <path
             style="fill:none;stroke:#000000;stroke-width:2;stroke-linecap:round;stroke-linejoin:round;stroke-miterlimit:4;stroke-dasharray:none;stroke-opacity:1"
             d="m 53.119974,100.39811 c -0.466162,-1.412005 -1.5255,-5.729326 -5.977695,1.76614 -10.73268,18.06894 -25.812775,4.21155 -25.812775,4.21155 0.372469,-5.24757 18.581816,-14.217756 8.153221,-4.72079 -9.238256,6.52113 -23.369173,-7.913879 -23.369173,-7.913879 4.483271,-14.808382 47.375568,2.67871 47.375568,2.67871 -0.755837,-4.768904 3.524644,-6.806536 3.524644,-6.806536 -4.347413,-7.879689 3.238582,-7.022056 3.238582,-7.022056 0,0 0.467456,4.605986 -3.238582,7.022056 M 72.68334,100.39811 c 0.466162,-1.412005 1.5255,-5.729326 5.977695,1.76614 10.73268,18.06894 25.812775,4.21155 25.812775,4.21155 -0.37247,-5.24757 -18.581816,-14.217756 -8.153221,-4.72079 9.238251,6.52113 23.369171,-7.913879 23.369171,-7.913879 -4.48327,-14.808382 -47.375566,2.67871 -47.375566,2.67871 0.755837,-4.768904 -3.524644,-6.806536 -3.524644,-6.806536 4.347413,-7.879689 -3.238582,-7.022056 -3.238582,-7.022056 0,0 -0.467456,4.605986 3.238582,7.022056"
             id="path1616"
             sodipodi:nodetypes="ccccscscc"
             inkscape:original-d="m 53.119974,100.39811 c -0.466162,-1.412005 -1.5255,-5.729326 -5.977695,1.76614 -10.73268,18.06894 -25.812775,4.21155 -25.812775,4.21155 0.372469,-5.24757 18.581816,-14.217756 8.153221,-4.72079 -9.238256,6.52113 -23.369173,-7.913879 -23.369173,-7.913879 4.483271,-14.808382 47.375568,2.67871 47.375568,2.67871 -0.755837,-4.768904 3.524644,-6.806536 3.524644,-6.806536 -4.347413,-7.879689 3.238582,-7.022056 3.238582,-7.022056 0,0 0.467456,4.605986 -3.238582,7.022056" />
          <path
             style="fill:none;stroke:#000000;stroke-width:2;stroke-linecap:round;stroke-linejoin:round;stroke-miterlimit:4;stroke-dasharray:none;stroke-opacity:1"
             d="m 53.119974,100.39811 c 0,0 -12.3177,28.30665 9.826946,35.3712 m 9.73642,-35.3712 c 0,0 12.3177,28.30665 -9.826946,35.3712"
             id="path1618"
             sodipodi:nodetypes="cc"
             inkscape:original-d="m 53.119974,100.39811 c 0,0 -12.3177,28.30665 9.826946,35.3712" />
        </g>
        <path
           style="fill:none;stroke:#000000;stroke-width:2;stroke-linecap:round;stroke-linejoin:round;stroke-miterlimit:4;stroke-dasharray:none;stroke-opacity:1"
           d="m 60.252345,82.591248 c 0,0 13.849326,-4.060828 6.818114,-12.735698 m -1.202804,12.735698 c 0,0 -13.849326,-4.060828 -6.818114,-12.735698"
           id="path3531"
           class="UnoptimicedTransforms"
           inkscape:original-d="m 60.252345,82.591248 c 0,0 13.849326,-4.060828 6.818114,-12.735698"
           inkscape:path-effect="#path-effect3621"
           transform="matrix(1.4667155,0,0,1.4667155,278.40134,75.400331)" />
        <path
           style="fill:none;stroke:#000000;stroke-width:4.40015;stroke-linecap:butt;stroke-linejoin:miter;stroke-miterlimit:4;stroke-dasharray:none;stroke-opacity:1"
           d="m 351.46779,244.83008 c 0,0 19.00562,-12.05382 38.47802,0.52342"
           id="path4262"
           sodipodi:nodetypes="cc" />
        <path
           style="fill:none;stroke:#000000;stroke-width:4.40015;stroke-linecap:butt;stroke-linejoin:miter;stroke-miterlimit:4;stroke-dasharray:none;stroke-opacity:1"
           d="m 351.46779,253.2968 c 0,0 19.00562,-12.05382 38.47802,0.52342"
           id="path963"
           sodipodi:nodetypes="cc" />
        <path
           style="color:#000000;fill:#000000;-inkscape-stroke:none"
           d="m 369.27344,229.04492 c -10.78857,0.49419 -17.53828,5.40618 -17.53828,5.40618 l 1.31953,3.75398 c 0,0 17.36188,-11.39044 35.41211,0.51562 l 1.26283,-3.91035 c -7.57943,-4.99945 -13.98305,-6.06194 -20.45619,-5.76543 z"
           id="path965"
           sodipodi:nodetypes="sccccs" />
      </g>
      <path
         style="color:#000000;fill:#000000;stroke-linecap:round;stroke-linejoin:round;stroke-dasharray:16.1443, 16.1443;stroke-dashoffset:33.4994;-inkscape-stroke:none"
         d="m 458.65066,208.73172 a 2.0180349,2.0180349 0 0 1 1.00872,0.31213 v 13.68443 h -3.02617 v -11.97704 a 2.0180349,2.0180349 0 0 1 2.01745,-2.01952 z"
         id="path1065" />
      <path
         style="color:#000000;fill:#000000;stroke-linecap:round;stroke-linejoin:round;stroke-dasharray:16.1443, 16.1443;stroke-dashoffset:33.4994;-inkscape-stroke:none"
         d="m 458.65066,176.44429 a 2.0180349,2.0180349 0 0 1 1.00872,0.31212 v 19.55591 a 2.0180349,2.0180349 0 0 1 -1.00872,0.31161 2.0180349,2.0180349 0 0 1 -2.01745,-2.01745 v -16.14423 a 2.0180349,2.0180349 0 0 1 2.01745,-2.01796 z"
         id="path1063" />
      <path
         style="color:#000000;fill:#000000;stroke-linecap:round;stroke-linejoin:round;stroke-dasharray:16.1443, 16.1443;stroke-dashoffset:33.4994;-inkscape-stroke:none"
         d="m 371.41723,153.65136 a 2.0180349,2.0180349 0 0 1 0.20412,0.84801 2.0180349,2.0180349 0 0 1 -0.20412,0.8475 z"
         id="path1061" />
      <path
         style="color:#000000;fill:#000000;stroke-linecap:round;stroke-linejoin:round;stroke-dasharray:16.1443, 16.1443;stroke-dashoffset:33.4994;-inkscape-stroke:none"
         d="m 403.59666,153.49065 a 2.0180349,2.0180349 0 0 1 0.31212,1.00872 2.0180349,2.0180349 0 0 1 -2.01796,2.01745 h -16.14424 a 2.0180349,2.0180349 0 0 1 -2.01744,-2.01745 2.0180349,2.0180349 0 0 1 0.3116,-1.00872 z"
         id="path1059" />
      <path
         style="color:#000000;fill:#000000;stroke-linecap:round;stroke-linejoin:round;stroke-dasharray:16.1443, 16.1443;stroke-dashoffset:33.4994;-inkscape-stroke:none"
         d="m 435.88564,153.49065 a 2.0180349,2.0180349 0 0 1 0.31213,1.00872 2.0180349,2.0180349 0 0 1 -2.01745,2.01745 h -16.14475 a 2.0180349,2.0180349 0 0 1 -2.01745,-2.01745 2.0180349,2.0180349 0 0 1 0.31161,-1.00872 z"
         id="path1057" />
      <path
         style="color:#000000;fill:#000000;stroke-linecap:round;stroke-linejoin:round;stroke-dasharray:16.1443, 16.1443;stroke-dashoffset:33.4994;-inkscape-stroke:none"
         d="m 459.65938,153.49065 v 10.53269 a 2.0180349,2.0180349 0 0 1 -1.00872,0.31161 2.0180349,2.0180349 0 0 1 -2.01745,-2.01745 v -5.80068 h -6.30866 a 2.0180349,2.0180349 0 0 1 -2.01951,-2.01745 2.0180349,2.0180349 0 0 1 0.31212,-1.00872 z"
         id="path1041" />
      <path
         id="path1043"
         style="color:#000000;fill:#000000;stroke-linecap:round;stroke-linejoin:round;stroke-dasharray:16.1443, 16.1443;stroke-dashoffset:33.4994;-inkscape-stroke:none"
         d="m 459.65938,291.52038 v -10.53269 a 2.0180349,2.0180349 0 0 0 -1.00872,-0.31161 2.0180349,2.0180349 0 0 0 -2.01745,2.01745 v 5.80068 h -6.30866 a 2.0180349,2.0180349 0 0 0 -2.01951,2.01745 2.0180349,2.0180349 0 0 0 0.31212,1.00872 z m -23.77374,0 a 2.0180349,2.0180349 0 0 0 0.31213,-1.00872 2.0180349,2.0180349 0 0 0 -2.01745,-2.01745 h -16.14475 a 2.0180349,2.0180349 0 0 0 -2.01745,2.01745 2.0180349,2.0180349 0 0 0 0.31161,1.00872 z m -32.28898,0 a 2.0180349,2.0180349 0 0 0 0.31212,-1.00872 2.0180349,2.0180349 0 0 0 -2.01796,-2.01745 h -16.14424 a 2.0180349,2.0180349 0 0 0 -2.01744,2.01745 2.0180349,2.0180349 0 0 0 0.3116,1.00872 z m -32.17943,-0.16071 a 2.0180349,2.0180349 0 0 0 0.20412,-0.84801 2.0180349,2.0180349 0 0 0 -0.20412,-0.8475 z m 87.23343,-22.79293 a 2.0180349,2.0180349 0 0 0 1.00872,-0.31212 v -19.55591 a 2.0180349,2.0180349 0 0 0 -1.00872,-0.31161 2.0180349,2.0180349 0 0 0 -2.01745,2.01745 v 16.14423 a 2.0180349,2.0180349 0 0 0 2.01745,2.01796 z m 0,-32.28743 a 2.0180349,2.0180349 0 0 0 1.00872,-0.31213 v -13.68443 h -3.02617 v 11.97704 a 2.0180349,2.0180349 0 0 0 2.01745,2.01952 z" />
      <path
         style="color:#000000;fill:#000000;stroke-width:1.16777;stroke-linecap:round;stroke-linejoin:round;stroke-dasharray:18.8528, 18.8528;stroke-dashoffset:39.1195;-inkscape-stroke:none"
         d="m 396.00528,153.49065 a 2.7519497,2.0180349 0 0 1 0.42563,1.00872 2.7519497,2.0180349 0 0 1 -2.75185,2.01745 h -22.01554 a 2.7519497,2.0180349 0 0 1 -2.75114,-2.01745 2.7519497,2.0180349 0 0 1 0.42492,-1.00872 z"
         id="path1067" />
      <path
         style="color:#000000;fill:#000000;stroke-width:1.10951;stroke-linecap:round;stroke-linejoin:round;stroke-dasharray:17.9122, 17.9122;stroke-dashoffset:37.1678;-inkscape-stroke:none"
         d="m 373.36187,153.49065 a 2.4842158,2.0180349 0 0 1 0.38422,1.00872 2.4842158,2.0180349 0 0 1 -2.48412,2.01745 h -19.87368 a 2.4842158,2.0180349 0 0 1 -2.48349,-2.01745 2.4842158,2.0180349 0 0 1 0.38359,-1.00872 z"
         id="path1069" />
      <path
         style="color:#000000;fill:#000000;stroke-width:1.14432;stroke-linecap:round;stroke-linejoin:round;stroke-dasharray:18.4742, 18.4742;stroke-dashoffset:38.334;-inkscape-stroke:none"
         d="m 394.92816,291.45517 a 2.6425414,2.0180349 0 0 0 0.40871,-1.00872 2.6425414,2.0180349 0 0 0 -2.64245,-2.01745 h -21.14028 a 2.6425414,2.0180349 0 0 0 -2.64176,2.01745 2.6425414,2.0180349 0 0 0 0.40803,1.00872 z"
         id="path1071" />
      <path
         style="color:#000000;fill:#000000;stroke-width:1.09766;stroke-linecap:round;stroke-linejoin:round;stroke-dasharray:17.7209, 17.7209;stroke-dashoffset:36.7709;-inkscape-stroke:none"
         d="m 373.37003,291.45517 a 2.4314406,2.0180349 0 0 0 0.37606,-1.00872 2.4314406,2.0180349 0 0 0 -2.43135,-2.01745 h -19.45148 a 2.4314406,2.0180349 0 0 0 -2.43072,2.01745 2.4314406,2.0180349 0 0 0 0.37543,1.00872 z"
         id="path1073" />
    </g>
  </g>
</svg>
