<?xml version="1.0" encoding="UTF-8" standalone="no"?>
<svg
   height="128"
   width="128"
   version="1.1"
   id="svg7"
   sodipodi:docname="icon.svg"
   inkscape:version="1.3.2 (091e20e, 2023-11-25, custom)"
   xmlns:inkscape="http://www.inkscape.org/namespaces/inkscape"
   xmlns:sodipodi="http://sodipodi.sourceforge.net/DTD/sodipodi-0.dtd"
   xmlns="http://www.w3.org/2000/svg"
   xmlns:svg="http://www.w3.org/2000/svg">
  <defs
     id="defs7">
    <rect
       x="12.930706"
       y="17.240941"
       width="102.72727"
       height="98.776225"
       id="rect7" />
  </defs>
  <sodipodi:namedview
     id="namedview7"
     pagecolor="#ffffff"
     bordercolor="#000000"
     borderopacity="0.25"
     inkscape:showpageshadow="2"
     inkscape:pageopacity="0.0"
     inkscape:pagecheckerboard="0"
     inkscape:deskcolor="#d1d1d1"
     inkscape:zoom="2.7840707"
     inkscape:cx="111.70693"
     inkscape:cy="70.220918"
     inkscape:window-width="1920"
     inkscape:window-height="991"
     inkscape:window-x="-9"
     inkscape:window-y="-9"
     inkscape:window-maximized="1"
     inkscape:current-layer="svg7" />
  <rect
     x="2"
     y="2"
     width="124"
     height="124"
     rx="14"
     fill="#363d52"
     stroke="#212532"
     stroke-width="4"
     id="rect1" />
  <g
     id="text7"
     style="font-size:18.6667px;font-family:Arial;-inkscape-font-specification:Arial;white-space:pre;fill:none;stroke:#000000;stroke-width:3.77953;stroke-linecap:round"
     transform="matrix(1.304034,0,0,1.304034,-19.379217,12.947841)"
     aria-label="No image data found">
    <path
       style="text-align:center;text-anchor:middle;fill:#ffffff;stroke:none"
       d="M 25.772066,34.054347 V 20.692344 h 1.813805 l 7.018242,10.490904 V 20.692344 h 1.695316 V 34.054347 H 34.485623 L 27.467381,23.554328 v 10.500019 z m 12.678409,-4.839852 q 0,-2.688807 1.494794,-3.98308 1.2487,-1.075523 3.044276,-1.075523 1.996098,0 3.263027,1.312502 1.266929,1.303388 1.266929,3.609382 0,1.868493 -0.565105,2.944016 -0.55599,1.066408 -1.631513,1.658857 -1.066408,0.592449 -2.333338,0.592449 -2.032555,0 -3.29037,-1.303388 -1.2487,-1.303388 -1.2487,-3.755215 z m 1.686201,0 q 0,1.859378 0.811199,2.789067 0.811199,0.920575 2.04167,0.920575 1.221357,0 2.032556,-0.929689 0.811199,-0.929689 0.811199,-2.834641 0,-1.795576 -0.820314,-2.716151 -0.811199,-0.929689 -2.023441,-0.929689 -1.230471,0 -2.04167,0.920575 -0.811199,0.920574 -0.811199,2.779953 z m 14.501327,-6.635429 v -1.886722 h 1.640628 v 1.886722 z m 0,11.475281 v -9.679705 h 1.640628 v 9.679705 z m 4.13803,0 v -9.679705 h 1.46745 v 1.358076 q 0.45573,-0.710939 1.212242,-1.139325 0.756512,-0.437501 1.72266,-0.437501 1.075522,0 1.759117,0.446615 0.69271,0.446616 0.975262,1.2487 1.14844,-1.695315 2.989589,-1.695315 1.440107,0 2.214848,0.802085 0.774741,0.79297 0.774741,2.451827 v 6.644543 H 70.260429 V 27.95668 q 0,-0.984377 -0.164063,-1.412763 -0.154948,-0.437501 -0.57422,-0.701824 -0.419272,-0.264324 -0.984377,-0.264324 -1.020835,0 -1.695315,0.683595 -0.674481,0.674481 -0.674481,2.169275 v 5.623708 h -1.640628 v -6.289074 q 0,-1.093752 -0.401042,-1.640628 -0.401042,-0.546876 -1.312502,-0.546876 -0.69271,0 -1.285159,0.364584 -0.583334,0.364584 -0.847658,1.066409 -0.264323,0.701824 -0.264323,2.023441 v 5.022144 z m 21.865925,-1.194012 q -0.91146,0.774741 -1.759118,1.093752 -0.838543,0.319011 -1.804691,0.319011 -1.595055,0 -2.451827,-0.774741 -0.856773,-0.783856 -0.856773,-1.996098 0,-0.710938 0.319011,-1.294273 0.328126,-0.592449 0.847658,-0.947918 0.528647,-0.35547 1.184898,-0.537762 0.483074,-0.127604 1.458336,-0.246094 1.986983,-0.236979 2.925787,-0.565105 0.0091,-0.33724 0.0091,-0.428386 0,-1.002606 -0.464844,-1.412763 -0.628908,-0.555991 -1.868493,-0.555991 -1.157555,0 -1.713545,0.410157 -0.546876,0.401043 -0.811199,1.430992 l -1.60417,-0.21875 q 0.21875,-1.02995 0.720053,-1.658857 0.501303,-0.638022 1.449222,-0.975262 0.947918,-0.346355 2.196618,-0.346355 1.239586,0 2.014327,0.291667 0.774741,0.291667 1.139325,0.738283 0.364584,0.4375 0.510417,1.111981 0.08203,0.419271 0.08203,1.513023 v 2.187504 q 0,2.287765 0.10026,2.898443 0.109376,0.601564 0.419272,1.157554 H 80.970083 Q 80.714874,33.54393 80.641958,32.860335 Z m -0.136719,-3.664069 q -0.893231,0.364584 -2.679693,0.619792 -1.01172,0.145834 -1.430992,0.328126 -0.419271,0.182292 -0.647136,0.537761 -0.227865,0.346355 -0.227865,0.774741 0,0.656252 0.492188,1.093752 0.501303,0.437501 1.458336,0.437501 0.947918,0 1.686201,-0.410157 0.738282,-0.419271 1.084637,-1.139325 0.264324,-0.55599 0.264324,-1.640628 z m 3.901046,5.660166 1.595055,0.23698 q 0.100261,0.738282 0.555991,1.075522 0.610678,0.45573 1.667971,0.45573 1.139325,0 1.759118,-0.45573 0.619793,-0.45573 0.838543,-1.276044 0.127605,-0.501303 0.11849,-2.105472 -1.075523,1.266929 -2.679692,1.266929 -1.996098,0 -3.08985,-1.440106 -1.093751,-1.440107 -1.093751,-3.454434 0,-1.385419 0.501303,-2.552088 0.501302,-1.175783 1.449221,-1.813805 0.957033,-0.638022 2.242191,-0.638022 1.713545,0 2.825526,1.385419 v -1.166669 h 1.513024 v 8.367203 q 0,2.260421 -0.464845,3.199224 -0.45573,0.947919 -1.458336,1.494795 -0.993491,0.546876 -2.451827,0.546876 -1.731774,0 -2.798182,-0.783856 -1.066408,-0.774741 -1.02995,-2.342452 z m 1.358075,-5.815115 q 0,1.904952 0.756512,2.779953 0.756512,0.875002 1.895837,0.875002 1.13021,0 1.895837,-0.865887 0.765626,-0.875002 0.765626,-2.73438 0,-1.777347 -0.79297,-2.679692 -0.783856,-0.902346 -1.895837,-0.902346 -1.093752,0 -1.859378,0.893231 -0.765627,0.884116 -0.765627,2.634119 z m 15.95055,1.895837 1.69531,0.209636 q -0.40104,1.48568 -1.48568,2.305994 -1.08463,0.820314 -2.770835,0.820314 -2.123701,0 -3.372402,-1.303388 -1.239585,-1.312502 -1.239585,-3.673184 0,-2.442713 1.257815,-3.791673 1.257814,-1.348961 3.263026,-1.348961 1.941411,0 3.171881,1.321617 1.23047,1.321617 1.23047,3.718757 0,0.145833 -0.009,0.4375 h -7.218767 q 0.09115,1.595055 0.902346,2.442713 0.811199,0.847658 2.023441,0.847658 0.90235,0 1.54037,-0.473959 0.63802,-0.473959 1.01172,-1.513024 z m -5.386731,-2.652348 h 5.404961 q -0.10938,-1.221357 -0.6198,-1.832035 -0.78385,-0.947918 -2.032551,-0.947918 -1.130211,0 -1.904952,0.756511 -0.765626,0.756512 -0.847658,2.023442 z"
       id="path1" />
    <path
       style="text-align:center;text-anchor:middle;fill:#ffffff;stroke:none"
       d="m 27.690689,57.387721 v -1.221356 q -0.920574,1.440107 -2.707036,1.440107 -1.157554,0 -2.132816,-0.638022 -0.966148,-0.638022 -1.503909,-1.777347 -0.528647,-1.14844 -0.528647,-2.63412 0,-1.449221 0.483074,-2.625004 0.483073,-1.184898 1.449221,-1.813806 0.966148,-0.628907 2.16016,-0.628907 0.875002,0 1.558597,0.373699 0.683595,0.364584 1.111981,0.957033 v -4.79428 h 1.631513 v 13.362003 z m -5.186207,-4.830738 q 0,1.859379 0.783855,2.779953 0.783856,0.920575 1.850264,0.920575 1.075523,0 1.82292,-0.875002 0.756512,-0.884116 0.756512,-2.688807 0,-1.986982 -0.765626,-2.916672 -0.765627,-0.929689 -1.886723,-0.929689 -1.093752,0 -1.832034,0.893231 -0.729168,0.893231 -0.729168,2.816411 z m 15.604194,3.636726 q -0.91146,0.774741 -1.759117,1.093752 -0.838544,0.319011 -1.804691,0.319011 -1.595055,0 -2.451827,-0.774741 -0.856773,-0.783856 -0.856773,-1.996098 0,-0.710938 0.319011,-1.294273 0.328126,-0.592449 0.847658,-0.947918 0.528647,-0.35547 1.184898,-0.537762 0.483074,-0.127604 1.458336,-0.246094 1.986983,-0.236979 2.925786,-0.565105 0.0091,-0.33724 0.0091,-0.428386 0,-1.002606 -0.464845,-1.412763 -0.628907,-0.555991 -1.868493,-0.555991 -1.157554,0 -1.713544,0.410157 -0.546876,0.401043 -0.8112,1.430992 l -1.604169,-0.21875 q 0.21875,-1.02995 0.720053,-1.658857 0.501303,-0.638022 1.449221,-0.975262 0.947919,-0.346355 2.196619,-0.346355 1.239586,0 2.014327,0.291667 0.774741,0.291667 1.139325,0.738283 0.364584,0.437501 0.510417,1.111981 0.08203,0.419271 0.08203,1.513023 v 2.187504 q 0,2.287765 0.10026,2.898443 0.109375,0.601564 0.419272,1.157554 H 38.436802 Q 38.181593,56.877304 38.108676,56.193709 Z M 37.971957,52.52964 q -0.89323,0.364584 -2.679692,0.619792 -1.011721,0.145834 -1.430992,0.328126 -0.419272,0.182292 -0.647137,0.537761 -0.227865,0.346355 -0.227865,0.774741 0,0.656252 0.492189,1.093752 0.501303,0.437501 1.458336,0.437501 0.947918,0 1.686201,-0.410157 0.738282,-0.419271 1.084637,-1.139325 0.264323,-0.55599 0.264323,-1.640628 z m 7.783868,3.390631 0.23698,1.449221 q -0.69271,0.145834 -1.239586,0.145834 -0.89323,0 -1.385419,-0.282553 -0.492188,-0.282552 -0.692709,-0.738282 -0.200522,-0.464845 -0.200522,-1.94141 V 48.98406 h -1.203127 v -1.276044 h 1.203127 V 45.310877 L 44.106083,44.3265 v 3.381516 h 1.649742 v 1.276044 h -1.649742 v 5.660167 q 0,0.701824 0.08203,0.902345 0.09115,0.200521 0.282553,0.319011 0.200521,0.11849 0.565105,0.11849 0.273438,0 0.720053,-0.0638 z m 7.920587,0.273438 q -0.91146,0.774741 -1.759118,1.093752 -0.838543,0.319011 -1.80469,0.319011 -1.595055,0 -2.451828,-0.774741 -0.856772,-0.783856 -0.856772,-1.996098 0,-0.710938 0.319011,-1.294273 0.328125,-0.592449 0.847658,-0.947918 0.528646,-0.35547 1.184898,-0.537762 0.483073,-0.127604 1.458336,-0.246094 1.986982,-0.236979 2.925786,-0.565105 0.0091,-0.33724 0.0091,-0.428386 0,-1.002606 -0.464845,-1.412763 -0.628907,-0.555991 -1.868493,-0.555991 -1.157554,0 -1.713545,0.410157 -0.546876,0.401043 -0.811199,1.430992 l -1.60417,-0.21875 q 0.218751,-1.02995 0.720054,-1.658857 0.501303,-0.638022 1.449221,-0.975262 0.947919,-0.346355 2.196619,-0.346355 1.239585,0 2.014326,0.291667 0.774741,0.291667 1.139325,0.738283 0.364584,0.437501 0.510418,1.111981 0.08203,0.419271 0.08203,1.513023 v 2.187504 q 0,2.287765 0.100261,2.898443 0.109375,0.601564 0.419271,1.157554 H 54.004538 Q 53.749329,56.877304 53.676412,56.193709 Z M 53.539693,52.52964 q -0.893231,0.364584 -2.679692,0.619792 -1.011721,0.145834 -1.430992,0.328126 -0.419272,0.182292 -0.647137,0.537761 -0.227865,0.346355 -0.227865,0.774741 0,0.656252 0.492188,1.093752 0.501303,0.437501 1.458336,0.437501 0.947919,0 1.686201,-0.410157 0.738283,-0.419271 1.084638,-1.139325 0.264323,-0.55599 0.264323,-1.640628 z m 9.779967,4.858081 V 48.98406 h -1.449222 v -1.276044 h 1.449222 v -1.029949 q 0,-0.975263 0.173177,-1.449222 0.23698,-0.638022 0.829429,-1.02995 0.601563,-0.401042 1.677086,-0.401042 0.69271,0 1.531253,0.164063 l -0.246094,1.430992 q -0.510418,-0.09115 -0.966148,-0.09115 -0.747397,0 -1.057293,0.319011 -0.309897,0.319011 -0.309897,1.194013 v 0.89323 h 1.886722 v 1.276044 h -1.886722 v 8.403661 z m 4.183601,-4.839852 q 0,-2.688807 1.494794,-3.98308 1.2487,-1.075523 3.044276,-1.075523 1.996098,0 3.263027,1.312502 1.266929,1.303388 1.266929,3.609382 0,1.868493 -0.565105,2.944016 -0.55599,1.066408 -1.631513,1.658857 -1.066408,0.592449 -2.333338,0.592449 -2.032555,0 -3.29037,-1.303388 -1.2487,-1.303388 -1.2487,-3.755215 z m 1.686201,0 q 0,1.859378 0.811199,2.789067 0.811199,0.920575 2.04167,0.920575 1.221357,0 2.032556,-0.929689 0.811199,-0.929689 0.811199,-2.834641 0,-1.795576 -0.820314,-2.716151 -0.811199,-0.929689 -2.023441,-0.929689 -1.230471,0 -2.04167,0.920575 -0.811199,0.920574 -0.811199,2.779953 z m 15.649765,4.839852 v -1.421877 q -1.13021,1.640628 -3.07162,1.640628 -0.856772,0 -1.604169,-0.328126 -0.738283,-0.328125 -1.102867,-0.820314 -0.355469,-0.501303 -0.501303,-1.221356 -0.100261,-0.483074 -0.100261,-1.531253 v -5.997407 h 1.640628 v 5.3685 q 0,1.285158 0.100261,1.731774 0.154948,0.647136 0.656251,1.020835 0.501303,0.364584 1.239586,0.364584 0.738282,0 1.385419,-0.373699 0.647136,-0.382813 0.91146,-1.02995 0.273438,-0.656251 0.273438,-1.895836 v -5.186208 h 1.640628 v 9.679705 z m 4.037766,0 v -9.679705 h 1.476565 v 1.376305 q 1.066408,-1.595055 3.080735,-1.595055 0.875001,0 1.604169,0.319011 0.738283,0.309896 1.102867,0.820314 0.364584,0.510417 0.510417,1.212242 0.09115,0.45573 0.09115,1.595055 v 5.951833 H 95.102264 V 51.49969 q 0,-1.002606 -0.191406,-1.494795 -0.191407,-0.501303 -0.683595,-0.79297 -0.483074,-0.300781 -1.139325,-0.300781 -1.048179,0 -1.813806,0.665365 -0.756511,0.665366 -0.756511,2.524744 v 5.286468 z m 16.661487,0 v -1.221356 q -0.92057,1.440107 -2.70703,1.440107 -1.15756,0 -2.13282,-0.638022 -0.966147,-0.638022 -1.503909,-1.777347 -0.528647,-1.14844 -0.528647,-2.63412 0,-1.449221 0.483074,-2.625004 0.483074,-1.184898 1.449222,-1.813806 0.96615,-0.628907 2.16016,-0.628907 0.875,0 1.5586,0.373699 0.68359,0.364584 1.11198,0.957033 v -4.79428 h 1.63151 v 13.362003 z m -5.1862,-4.830738 q 0,1.859379 0.78385,2.779953 0.78386,0.920575 1.85026,0.920575 1.07553,0 1.82292,-0.875002 0.75652,-0.884116 0.75652,-2.688807 0,-1.986982 -0.76563,-2.916672 -0.76563,-0.929689 -1.88672,-0.929689 -1.09375,0 -1.83204,0.893231 -0.72916,0.893231 -0.72916,2.816411 z"
       id="path2" />
  </g>
</svg>
