<?xml version="1.0" encoding="UTF-8" standalone="no"?>
<!-- Created with Inkscape (http://www.inkscape.org/) -->

<svg
   width="1200"
   height="800"
   viewBox="0 0 317.5 211.66666"
   version="1.1"
   id="svg5"
   inkscape:version="1.3.2 (091e20e, 2023-11-25, custom)"
   sodipodi:docname="large icon.svg"
   inkscape:export-filename="..\..\..\..\..\..\Desktop\large icon.png"
   inkscape:export-xdpi="96"
   inkscape:export-ydpi="96"
   xmlns:inkscape="http://www.inkscape.org/namespaces/inkscape"
   xmlns:sodipodi="http://sodipodi.sourceforge.net/DTD/sodipodi-0.dtd"
   xmlns="http://www.w3.org/2000/svg"
   xmlns:svg="http://www.w3.org/2000/svg">
  <sodipodi:namedview
     id="namedview7"
     pagecolor="#ffffff"
     bordercolor="#666666"
     borderopacity="1.0"
     inkscape:pageshadow="2"
     inkscape:pageopacity="1"
     inkscape:pagecheckerboard="0"
     inkscape:document-units="mm"
     showgrid="false"
     showborder="true"
     inkscape:zoom="0.45859705"
     inkscape:cx="214.78551"
     inkscape:cy="725.03737"
     inkscape:window-width="1902"
     inkscape:window-height="1001"
     inkscape:window-x="0"
     inkscape:window-y="0"
     inkscape:window-maximized="0"
     inkscape:current-layer="layer1"
     inkscape:showpageshadow="0"
     inkscape:deskcolor="#d1d1d1" />
  <defs
     id="defs2">
    <inkscape:path-effect
       effect="mirror_symmetry"
       start_point="63.06,82.591248"
       end_point="63.06,69.85555"
       center_point="63.06,76.223399"
       id="path-effect54"
       is_visible="true"
       lpeversion="1.1"
       mode="free"
       discard_orig_path="false"
       fuse_paths="false"
       oposite_fuse="false"
       split_items="false"
       split_open="false"
       lpesatellites=""
       link_styles="false" />
    <inkscape:path-effect
       effect="mirror_symmetry"
       start_point="62.901657,80.69889"
       end_point="62.901657,135.17743"
       center_point="62.901657,107.93816"
       id="path-effect52"
       is_visible="true"
       lpeversion="1.1"
       mode="free"
       discard_orig_path="false"
       fuse_paths="false"
       oposite_fuse="false"
       split_items="false"
       split_open="false"
       lpesatellites=""
       link_styles="false" />
    <inkscape:path-effect
       effect="mirror_symmetry"
       start_point="63.06,82.591248"
       end_point="63.06,69.85555"
       center_point="63.06,76.223399"
       id="path-effect50"
       is_visible="true"
       lpeversion="1.1"
       mode="free"
       discard_orig_path="false"
       fuse_paths="false"
       oposite_fuse="false"
       split_items="false"
       split_open="false"
       lpesatellites=""
       link_styles="false" />
    <inkscape:path-effect
       effect="mirror_symmetry"
       start_point="62.901657,80.69889"
       end_point="62.901657,135.17743"
       center_point="62.901657,107.93816"
       id="path-effect48"
       is_visible="true"
       lpeversion="1.1"
       mode="free"
       discard_orig_path="false"
       fuse_paths="false"
       oposite_fuse="false"
       split_items="false"
       split_open="false"
       lpesatellites=""
       link_styles="false" />
    <inkscape:path-effect
       effect="mirror_symmetry"
       start_point="63.06,82.591248"
       end_point="63.06,69.85555"
       center_point="63.06,76.223399"
       id="path-effect35"
       is_visible="true"
       lpeversion="1.1"
       mode="free"
       discard_orig_path="false"
       fuse_paths="false"
       oposite_fuse="false"
       split_items="false"
       split_open="false"
       lpesatellites=""
       link_styles="false" />
    <inkscape:path-effect
       effect="mirror_symmetry"
       start_point="62.901657,80.69889"
       end_point="62.901657,135.17743"
       center_point="62.901657,107.93816"
       id="path-effect33"
       is_visible="true"
       lpeversion="1.1"
       mode="free"
       discard_orig_path="false"
       fuse_paths="false"
       oposite_fuse="false"
       split_items="false"
       split_open="false"
       lpesatellites=""
       link_styles="false" />
    <inkscape:path-effect
       effect="mirror_symmetry"
       start_point="63.06,82.591248"
       end_point="63.06,69.85555"
       center_point="63.06,76.223399"
       id="path-effect31"
       is_visible="true"
       lpeversion="1.1"
       mode="free"
       discard_orig_path="false"
       fuse_paths="false"
       oposite_fuse="false"
       split_items="false"
       split_open="false"
       lpesatellites=""
       link_styles="false" />
    <inkscape:path-effect
       effect="mirror_symmetry"
       start_point="62.901657,80.69889"
       end_point="62.901657,135.17743"
       center_point="62.901657,107.93816"
       id="path-effect29"
       is_visible="true"
       lpeversion="1.1"
       mode="free"
       discard_orig_path="false"
       fuse_paths="false"
       oposite_fuse="false"
       split_items="false"
       split_open="false"
       lpesatellites=""
       link_styles="false" />
    <inkscape:path-effect
       effect="mirror_symmetry"
       start_point="63.06,82.591248"
       end_point="63.06,69.85555"
       center_point="63.06,76.223399"
       id="path-effect17"
       is_visible="true"
       lpeversion="1.1"
       mode="free"
       discard_orig_path="false"
       fuse_paths="false"
       oposite_fuse="false"
       split_items="false"
       split_open="false"
       lpesatellites=""
       link_styles="false" />
    <inkscape:path-effect
       effect="mirror_symmetry"
       start_point="62.901657,80.69889"
       end_point="62.901657,135.17743"
       center_point="62.901657,107.93816"
       id="path-effect15"
       is_visible="true"
       lpeversion="1.1"
       mode="free"
       discard_orig_path="false"
       fuse_paths="false"
       oposite_fuse="false"
       split_items="false"
       split_open="false"
       lpesatellites=""
       link_styles="false" />
    <inkscape:path-effect
       effect="mirror_symmetry"
       start_point="63.06,82.591248"
       end_point="63.06,69.85555"
       center_point="63.06,76.223399"
       id="path-effect9"
       is_visible="true"
       lpeversion="1.1"
       mode="free"
       discard_orig_path="false"
       fuse_paths="false"
       oposite_fuse="false"
       split_items="false"
       split_open="false"
       lpesatellites=""
       link_styles="false" />
    <inkscape:path-effect
       effect="mirror_symmetry"
       start_point="62.901657,80.698889"
       end_point="62.901657,135.17743"
       center_point="62.901657,107.93816"
       id="path-effect7"
       is_visible="true"
       lpeversion="1.1"
       mode="free"
       discard_orig_path="false"
       fuse_paths="false"
       oposite_fuse="false"
       split_items="false"
       split_open="false"
       lpesatellites=""
       link_styles="false" />
    <inkscape:path-effect
       effect="mirror_symmetry"
       start_point="63.06,82.591248"
       end_point="63.06,69.85555"
       center_point="63.06,76.223399"
       id="path-effect3621"
       is_visible="true"
       lpeversion="1.1"
       mode="free"
       discard_orig_path="false"
       fuse_paths="false"
       oposite_fuse="false"
       split_items="false"
       split_open="false"
       lpesatellites=""
       link_styles="false" />
    <inkscape:path-effect
       effect="mirror_symmetry"
       start_point="62.901657,80.698884"
       end_point="62.901657,135.17743"
       center_point="62.901657,107.93816"
       id="path-effect1722"
       is_visible="true"
       lpeversion="1.1"
       mode="free"
       discard_orig_path="false"
       fuse_paths="false"
       oposite_fuse="false"
       split_items="false"
       split_open="false"
       lpesatellites=""
       link_styles="false" />
    <inkscape:path-effect
       effect="mirror_symmetry"
       start_point="61.13491,65.678719"
       end_point="61.13491,102.02921"
       center_point="61.13491,83.853965"
       id="path-effect939"
       is_visible="true"
       lpeversion="1.1"
       mode="free"
       discard_orig_path="false"
       fuse_paths="false"
       oposite_fuse="false"
       split_items="false"
       split_open="false"
       lpesatellites=""
       link_styles="false" />
  </defs>
  <g
     inkscape:label="Layer 1"
     inkscape:groupmode="layer"
     id="layer1">
    <rect
       style="fill:#ffffff;fill-opacity:1;stroke:none;stroke-width:11.6192;stroke-linejoin:round;stroke-miterlimit:0;stroke-dasharray:23.2384, 11.6192;paint-order:stroke markers fill"
       id="rect1"
       width="317.5"
       height="224.89583"
       x="3.0079641e-14"
       y="-6.6145806" />
    <g
       id="g1"
       transform="matrix(0.4281225,0,0,0.4281225,0.33197185,-13.655772)"
       inkscape:export-filename="..\..\..\..\..\..\Desktop\large icon.png"
       inkscape:export-xdpi="96"
       inkscape:export-ydpi="96">
      <text
         xml:space="preserve"
         style="font-size:51.7423px;line-height:1.25;font-family:Magnolia;-inkscape-font-specification:Magnolia;letter-spacing:0px;stroke-width:0.388067"
         x="370.02966"
         y="363.57233"
         id="text7439"><tspan
           sodipodi:role="line"
           id="tspan7437"
           style="text-align:center;text-anchor:middle;stroke-width:0.388067"
           x="370.02966"
           y="363.57233">Rapid Taxonomic</tspan><tspan
           sodipodi:role="line"
           style="text-align:center;text-anchor:middle;stroke-width:0.388067"
           x="370.02966"
           y="428.25021"
           id="tspan1">Annotator</tspan></text>
      <path
         style="fill:none;stroke:#000000;stroke-width:2.62302;stroke-linecap:butt;stroke-linejoin:miter;stroke-miterlimit:4;stroke-dasharray:none;stroke-opacity:1"
         d="m 312.78948,141.73846 v 36.90793 l 8.2347,-9.52837 c 0,0 4.25947,10.29107 5.17966,12.29276 l 5.04226,-2.37844 -4.85199,-11.8922 h 11.76918 z"
         id="path5738"
         sodipodi:nodetypes="cccccccc" />
      <g
         id="g54">
        <g
           id="g6"
           transform="matrix(0.4768288,0,0,0.4768288,237.63492,153.9213)">
          <g
             id="g2"
             style="stroke-width:2;stroke-linecap:round;stroke-linejoin:round;stroke-miterlimit:4;stroke-dasharray:none"
             class="UnoptimicedTransforms"
             inkscape:path-effect="#path-effect7"
             transform="matrix(1.4667155,0,0,1.4667155,278.40134,75.400331)">
            <path
               style="fill:none;stroke:#000000;stroke-width:2;stroke-linecap:round;stroke-linejoin:round;stroke-miterlimit:4;stroke-dasharray:none;stroke-opacity:1"
               d="m 53.119974,100.39811 c -0.466162,-1.412005 -1.5255,-5.729326 -5.977695,1.76614 -10.73268,18.06894 -25.812775,4.21155 -25.812775,4.21155 0.372469,-5.24757 18.581816,-14.217756 8.153221,-4.72079 -9.238256,6.52113 -23.369173,-7.913879 -23.369173,-7.913879 4.483271,-14.808382 47.375568,2.67871 47.375568,2.67871 -0.755837,-4.768904 3.524644,-6.806536 3.524644,-6.806536 -4.347413,-7.879689 3.238582,-7.022056 3.238582,-7.022056 0,0 0.467456,4.605986 -3.238582,7.022056 M 72.68334,100.39811 c 0.466162,-1.412005 1.5255,-5.729326 5.977695,1.76614 10.73268,18.06894 25.812775,4.21155 25.812775,4.21155 -0.37247,-5.24757 -18.581816,-14.217756 -8.153221,-4.72079 9.238251,6.52113 23.369171,-7.913879 23.369171,-7.913879 -4.48327,-14.808382 -47.375566,2.67871 -47.375566,2.67871 0.755837,-4.768904 -3.524644,-6.806536 -3.524644,-6.806536 4.347413,-7.879689 -3.238582,-7.022056 -3.238582,-7.022056 0,0 -0.467456,4.605986 3.238582,7.022056"
               id="path1"
               sodipodi:nodetypes="ccccscscc"
               inkscape:original-d="m 53.119974,100.39811 c -0.466162,-1.412005 -1.5255,-5.729326 -5.977695,1.76614 -10.73268,18.06894 -25.812775,4.21155 -25.812775,4.21155 0.372469,-5.24757 18.581816,-14.217756 8.153221,-4.72079 -9.238256,6.52113 -23.369173,-7.913879 -23.369173,-7.913879 4.483271,-14.808382 47.375568,2.67871 47.375568,2.67871 -0.755837,-4.768904 3.524644,-6.806536 3.524644,-6.806536 -4.347413,-7.879689 3.238582,-7.022056 3.238582,-7.022056 0,0 0.467456,4.605986 -3.238582,7.022056" />
            <path
               style="fill:none;stroke:#000000;stroke-width:2;stroke-linecap:round;stroke-linejoin:round;stroke-miterlimit:4;stroke-dasharray:none;stroke-opacity:1"
               d="m 53.119974,100.39811 c 0,0 -12.3177,28.30665 9.826946,35.3712 m 9.73642,-35.3712 c 0,0 12.3177,28.30665 -9.826946,35.3712"
               id="path2"
               sodipodi:nodetypes="cc"
               inkscape:original-d="m 53.119974,100.39811 c 0,0 -12.3177,28.30665 9.826946,35.3712" />
          </g>
          <path
             style="fill:none;stroke:#000000;stroke-width:2;stroke-linecap:round;stroke-linejoin:round;stroke-miterlimit:4;stroke-dasharray:none;stroke-opacity:1"
             d="m 60.252345,82.591248 c 0,0 13.849326,-4.060828 6.818114,-12.735698 m -1.202804,12.735698 c 0,0 -13.849326,-4.060828 -6.818114,-12.735698"
             id="path3"
             class="UnoptimicedTransforms"
             inkscape:original-d="m 60.252345,82.591248 c 0,0 13.849326,-4.060828 6.818114,-12.735698"
             inkscape:path-effect="#path-effect9"
             transform="matrix(1.4667155,0,0,1.4667155,278.40134,75.400331)" />
          <path
             style="fill:none;stroke:#000000;stroke-width:4.40015;stroke-linecap:butt;stroke-linejoin:miter;stroke-miterlimit:4;stroke-dasharray:none;stroke-opacity:1"
             d="m 351.46779,244.83008 c 0,0 19.00562,-12.05382 38.47802,0.52342"
             id="path4"
             sodipodi:nodetypes="cc" />
          <path
             style="fill:none;stroke:#000000;stroke-width:4.40015;stroke-linecap:butt;stroke-linejoin:miter;stroke-miterlimit:4;stroke-dasharray:none;stroke-opacity:1"
             d="m 351.46779,253.2968 c 0,0 19.00562,-12.05382 38.47802,0.52342"
             id="path5"
             sodipodi:nodetypes="cc" />
          <path
             style="color:#000000;fill:#000000;-inkscape-stroke:none"
             d="m 369.27344,229.04492 c -10.78857,0.49419 -17.53828,5.40618 -17.53828,5.40618 l 1.31953,3.75398 c 0,0 17.36188,-11.39044 35.41211,0.51562 l 1.26283,-3.91035 c -7.57943,-4.99945 -13.98305,-6.06194 -20.45619,-5.76543 z"
             id="path6"
             sodipodi:nodetypes="sccccs" />
        </g>
        <g
           id="g14"
           transform="matrix(0.4768288,0,0,0.4768288,151.38066,153.9213)">
          <g
             id="g10"
             style="stroke-width:2;stroke-linecap:round;stroke-linejoin:round;stroke-miterlimit:4;stroke-dasharray:none"
             class="UnoptimicedTransforms"
             inkscape:path-effect="#path-effect15"
             transform="matrix(1.4667155,0,0,1.4667155,278.40134,75.400331)">
            <path
               style="fill:none;stroke:#000000;stroke-width:2;stroke-linecap:round;stroke-linejoin:round;stroke-miterlimit:4;stroke-dasharray:none;stroke-opacity:1"
               d="m 53.119974,100.39811 c -0.466162,-1.412005 -1.5255,-5.729326 -5.977695,1.76614 -10.73268,18.06894 -25.812775,4.21155 -25.812775,4.21155 0.372469,-5.24757 18.581816,-14.217756 8.153221,-4.72079 -9.238256,6.52113 -23.369173,-7.913879 -23.369173,-7.913879 4.483271,-14.808382 47.375568,2.67871 47.375568,2.67871 -0.755837,-4.768904 3.524644,-6.806536 3.524644,-6.806536 -4.347413,-7.879689 3.238582,-7.022056 3.238582,-7.022056 0,0 0.467456,4.605986 -3.238582,7.022056 M 72.68334,100.39811 c 0.466162,-1.412005 1.5255,-5.729326 5.977695,1.76614 10.73268,18.06894 25.812775,4.21155 25.812775,4.21155 -0.37247,-5.24757 -18.581816,-14.217756 -8.153221,-4.72079 9.238251,6.52113 23.369171,-7.913879 23.369171,-7.913879 -4.48327,-14.808382 -47.375566,2.67871 -47.375566,2.67871 0.755837,-4.768904 -3.524644,-6.806536 -3.524644,-6.806536 4.347413,-7.879689 -3.238582,-7.022056 -3.238582,-7.022056 0,0 -0.467456,4.605986 3.238582,7.022056"
               id="path9"
               sodipodi:nodetypes="ccccscscc"
               inkscape:original-d="m 53.119974,100.39811 c -0.466162,-1.412005 -1.5255,-5.729326 -5.977695,1.76614 -10.73268,18.06894 -25.812775,4.21155 -25.812775,4.21155 0.372469,-5.24757 18.581816,-14.217756 8.153221,-4.72079 -9.238256,6.52113 -23.369173,-7.913879 -23.369173,-7.913879 4.483271,-14.808382 47.375568,2.67871 47.375568,2.67871 -0.755837,-4.768904 3.524644,-6.806536 3.524644,-6.806536 -4.347413,-7.879689 3.238582,-7.022056 3.238582,-7.022056 0,0 0.467456,4.605986 -3.238582,7.022056" />
            <path
               style="fill:none;stroke:#000000;stroke-width:2;stroke-linecap:round;stroke-linejoin:round;stroke-miterlimit:4;stroke-dasharray:none;stroke-opacity:1"
               d="m 53.119974,100.39811 c 0,0 -12.3177,28.30665 9.826946,35.3712 m 9.73642,-35.3712 c 0,0 12.3177,28.30665 -9.826946,35.3712"
               id="path10"
               sodipodi:nodetypes="cc"
               inkscape:original-d="m 53.119974,100.39811 c 0,0 -12.3177,28.30665 9.826946,35.3712" />
          </g>
          <path
             style="fill:none;stroke:#000000;stroke-width:2;stroke-linecap:round;stroke-linejoin:round;stroke-miterlimit:4;stroke-dasharray:none;stroke-opacity:1"
             d="m 60.252345,82.591248 c 0,0 13.849326,-4.060828 6.818114,-12.735698 m -1.202804,12.735698 c 0,0 -13.849326,-4.060828 -6.818114,-12.735698"
             id="path11"
             class="UnoptimicedTransforms"
             inkscape:original-d="m 60.252345,82.591248 c 0,0 13.849326,-4.060828 6.818114,-12.735698"
             inkscape:path-effect="#path-effect17"
             transform="matrix(1.4667155,0,0,1.4667155,278.40134,75.400331)" />
          <path
             style="fill:none;stroke:#000000;stroke-width:4.40015;stroke-linecap:butt;stroke-linejoin:miter;stroke-miterlimit:4;stroke-dasharray:none;stroke-opacity:1"
             d="m 351.46779,244.83008 c 0,0 19.00562,-12.05382 38.47802,0.52342"
             id="path12"
             sodipodi:nodetypes="cc" />
          <path
             style="fill:none;stroke:#000000;stroke-width:4.40015;stroke-linecap:butt;stroke-linejoin:miter;stroke-miterlimit:4;stroke-dasharray:none;stroke-opacity:1"
             d="m 351.46779,253.2968 c 0,0 19.00562,-12.05382 38.47802,0.52342"
             id="path13"
             sodipodi:nodetypes="cc" />
          <path
             style="color:#000000;fill:#000000;-inkscape-stroke:none"
             d="m 369.27344,229.04492 c -10.78857,0.49419 -17.53828,5.40618 -17.53828,5.40618 l 1.31953,3.75398 c 0,0 17.36188,-11.39044 35.41211,0.51562 l 1.26283,-3.91035 c -7.57943,-4.99945 -13.98305,-6.06194 -20.45619,-5.76543 z"
             id="path14"
             sodipodi:nodetypes="sccccs" />
        </g>
      </g>
      <g
         id="g35"
         transform="translate(0,0.264602)">
        <g
           id="g22"
           transform="matrix(0.4768288,0,0,0.4768288,237.63492,104.70876)">
          <g
             id="g18"
             style="stroke-width:2;stroke-linecap:round;stroke-linejoin:round;stroke-miterlimit:4;stroke-dasharray:none"
             class="UnoptimicedTransforms"
             inkscape:path-effect="#path-effect29"
             transform="matrix(1.4667155,0,0,1.4667155,278.40134,75.400331)">
            <path
               style="fill:none;stroke:#000000;stroke-width:2;stroke-linecap:round;stroke-linejoin:round;stroke-miterlimit:4;stroke-dasharray:none;stroke-opacity:1"
               d="m 53.119974,100.39811 c -0.466162,-1.412005 -1.5255,-5.729326 -5.977695,1.76614 -10.73268,18.06894 -25.812775,4.21155 -25.812775,4.21155 0.372469,-5.24757 18.581816,-14.217756 8.153221,-4.72079 -9.238256,6.52113 -23.369173,-7.913879 -23.369173,-7.913879 4.483271,-14.808382 47.375568,2.67871 47.375568,2.67871 -0.755837,-4.768904 3.524644,-6.806536 3.524644,-6.806536 -4.347413,-7.879689 3.238582,-7.022056 3.238582,-7.022056 0,0 0.467456,4.605986 -3.238582,7.022056 M 72.68334,100.39811 c 0.466162,-1.412005 1.5255,-5.729326 5.977695,1.76614 10.73268,18.06894 25.812775,4.21155 25.812775,4.21155 -0.37247,-5.24757 -18.581816,-14.217756 -8.153221,-4.72079 9.238251,6.52113 23.369171,-7.913879 23.369171,-7.913879 -4.48327,-14.808382 -47.375566,2.67871 -47.375566,2.67871 0.755837,-4.768904 -3.524644,-6.806536 -3.524644,-6.806536 4.347413,-7.879689 -3.238582,-7.022056 -3.238582,-7.022056 0,0 -0.467456,4.605986 3.238582,7.022056"
               id="path17"
               sodipodi:nodetypes="ccccscscc"
               inkscape:original-d="m 53.119974,100.39811 c -0.466162,-1.412005 -1.5255,-5.729326 -5.977695,1.76614 -10.73268,18.06894 -25.812775,4.21155 -25.812775,4.21155 0.372469,-5.24757 18.581816,-14.217756 8.153221,-4.72079 -9.238256,6.52113 -23.369173,-7.913879 -23.369173,-7.913879 4.483271,-14.808382 47.375568,2.67871 47.375568,2.67871 -0.755837,-4.768904 3.524644,-6.806536 3.524644,-6.806536 -4.347413,-7.879689 3.238582,-7.022056 3.238582,-7.022056 0,0 0.467456,4.605986 -3.238582,7.022056" />
            <path
               style="fill:none;stroke:#000000;stroke-width:2;stroke-linecap:round;stroke-linejoin:round;stroke-miterlimit:4;stroke-dasharray:none;stroke-opacity:1"
               d="m 53.119974,100.39811 c 0,0 -12.3177,28.30665 9.826946,35.3712 m 9.73642,-35.3712 c 0,0 12.3177,28.30665 -9.826946,35.3712"
               id="path18"
               sodipodi:nodetypes="cc"
               inkscape:original-d="m 53.119974,100.39811 c 0,0 -12.3177,28.30665 9.826946,35.3712" />
          </g>
          <path
             style="fill:none;stroke:#000000;stroke-width:2;stroke-linecap:round;stroke-linejoin:round;stroke-miterlimit:4;stroke-dasharray:none;stroke-opacity:1"
             d="m 60.252345,82.591248 c 0,0 13.849326,-4.060828 6.818114,-12.735698 m -1.202804,12.735698 c 0,0 -13.849326,-4.060828 -6.818114,-12.735698"
             id="path19"
             class="UnoptimicedTransforms"
             inkscape:original-d="m 60.252345,82.591248 c 0,0 13.849326,-4.060828 6.818114,-12.735698"
             inkscape:path-effect="#path-effect31"
             transform="matrix(1.4667155,0,0,1.4667155,278.40134,75.400331)" />
          <path
             style="fill:none;stroke:#000000;stroke-width:4.40015;stroke-linecap:butt;stroke-linejoin:miter;stroke-miterlimit:4;stroke-dasharray:none;stroke-opacity:1"
             d="m 351.46779,244.83008 c 0,0 19.00562,-12.05382 38.47802,0.52342"
             id="path20"
             sodipodi:nodetypes="cc" />
          <path
             style="fill:none;stroke:#000000;stroke-width:4.40015;stroke-linecap:butt;stroke-linejoin:miter;stroke-miterlimit:4;stroke-dasharray:none;stroke-opacity:1"
             d="m 351.46779,253.2968 c 0,0 19.00562,-12.05382 38.47802,0.52342"
             id="path21"
             sodipodi:nodetypes="cc" />
          <path
             style="color:#000000;fill:#000000;-inkscape-stroke:none"
             d="m 369.27344,229.04492 c -10.78857,0.49419 -17.53828,5.40618 -17.53828,5.40618 l 1.31953,3.75398 c 0,0 17.36188,-11.39044 35.41211,0.51562 l 1.26283,-3.91035 c -7.57943,-4.99945 -13.98305,-6.06194 -20.45619,-5.76543 z"
             id="path22"
             sodipodi:nodetypes="sccccs" />
        </g>
        <g
           id="g28"
           transform="matrix(0.4768288,0,0,0.4768288,151.38066,104.70876)">
          <g
             id="g24"
             style="stroke-width:2;stroke-linecap:round;stroke-linejoin:round;stroke-miterlimit:4;stroke-dasharray:none"
             class="UnoptimicedTransforms"
             inkscape:path-effect="#path-effect33"
             transform="matrix(1.4667155,0,0,1.4667155,278.40134,75.400331)">
            <path
               style="fill:none;stroke:#000000;stroke-width:2;stroke-linecap:round;stroke-linejoin:round;stroke-miterlimit:4;stroke-dasharray:none;stroke-opacity:1"
               d="m 53.119974,100.39811 c -0.466162,-1.412005 -1.5255,-5.729326 -5.977695,1.76614 -10.73268,18.06894 -25.812775,4.21155 -25.812775,4.21155 0.372469,-5.24757 18.581816,-14.217756 8.153221,-4.72079 -9.238256,6.52113 -23.369173,-7.913879 -23.369173,-7.913879 4.483271,-14.808382 47.375568,2.67871 47.375568,2.67871 -0.755837,-4.768904 3.524644,-6.806536 3.524644,-6.806536 -4.347413,-7.879689 3.238582,-7.022056 3.238582,-7.022056 0,0 0.467456,4.605986 -3.238582,7.022056 M 72.68334,100.39811 c 0.466162,-1.412005 1.5255,-5.729326 5.977695,1.76614 10.73268,18.06894 25.812775,4.21155 25.812775,4.21155 -0.37247,-5.24757 -18.581816,-14.217756 -8.153221,-4.72079 9.238251,6.52113 23.369171,-7.913879 23.369171,-7.913879 -4.48327,-14.808382 -47.375566,2.67871 -47.375566,2.67871 0.755837,-4.768904 -3.524644,-6.806536 -3.524644,-6.806536 4.347413,-7.879689 -3.238582,-7.022056 -3.238582,-7.022056 0,0 -0.467456,4.605986 3.238582,7.022056"
               id="path23"
               sodipodi:nodetypes="ccccscscc"
               inkscape:original-d="m 53.119974,100.39811 c -0.466162,-1.412005 -1.5255,-5.729326 -5.977695,1.76614 -10.73268,18.06894 -25.812775,4.21155 -25.812775,4.21155 0.372469,-5.24757 18.581816,-14.217756 8.153221,-4.72079 -9.238256,6.52113 -23.369173,-7.913879 -23.369173,-7.913879 4.483271,-14.808382 47.375568,2.67871 47.375568,2.67871 -0.755837,-4.768904 3.524644,-6.806536 3.524644,-6.806536 -4.347413,-7.879689 3.238582,-7.022056 3.238582,-7.022056 0,0 0.467456,4.605986 -3.238582,7.022056" />
            <path
               style="fill:none;stroke:#000000;stroke-width:2;stroke-linecap:round;stroke-linejoin:round;stroke-miterlimit:4;stroke-dasharray:none;stroke-opacity:1"
               d="m 53.119974,100.39811 c 0,0 -12.3177,28.30665 9.826946,35.3712 m 9.73642,-35.3712 c 0,0 12.3177,28.30665 -9.826946,35.3712"
               id="path24"
               sodipodi:nodetypes="cc"
               inkscape:original-d="m 53.119974,100.39811 c 0,0 -12.3177,28.30665 9.826946,35.3712" />
          </g>
          <path
             style="fill:none;stroke:#000000;stroke-width:2;stroke-linecap:round;stroke-linejoin:round;stroke-miterlimit:4;stroke-dasharray:none;stroke-opacity:1"
             d="m 60.252345,82.591248 c 0,0 13.849326,-4.060828 6.818114,-12.735698 m -1.202804,12.735698 c 0,0 -13.849326,-4.060828 -6.818114,-12.735698"
             id="path25"
             class="UnoptimicedTransforms"
             inkscape:original-d="m 60.252345,82.591248 c 0,0 13.849326,-4.060828 6.818114,-12.735698"
             inkscape:path-effect="#path-effect35"
             transform="matrix(1.4667155,0,0,1.4667155,278.40134,75.400331)" />
          <path
             style="fill:none;stroke:#000000;stroke-width:4.40015;stroke-linecap:butt;stroke-linejoin:miter;stroke-miterlimit:4;stroke-dasharray:none;stroke-opacity:1"
             d="m 351.46779,244.83008 c 0,0 19.00562,-12.05382 38.47802,0.52342"
             id="path26"
             sodipodi:nodetypes="cc" />
          <path
             style="fill:none;stroke:#000000;stroke-width:4.40015;stroke-linecap:butt;stroke-linejoin:miter;stroke-miterlimit:4;stroke-dasharray:none;stroke-opacity:1"
             d="m 351.46779,253.2968 c 0,0 19.00562,-12.05382 38.47802,0.52342"
             id="path27"
             sodipodi:nodetypes="cc" />
          <path
             style="color:#000000;fill:#000000;-inkscape-stroke:none"
             d="m 369.27344,229.04492 c -10.78857,0.49419 -17.53828,5.40618 -17.53828,5.40618 l 1.31953,3.75398 c 0,0 17.36188,-11.39044 35.41211,0.51562 l 1.26283,-3.91035 c -7.57943,-4.99945 -13.98305,-6.06194 -20.45619,-5.76543 z"
             id="path28"
             sodipodi:nodetypes="sccccs" />
        </g>
      </g>
      <g
         id="g40"
         transform="matrix(0.4768288,0,0,0.4768288,237.63492,56.025424)">
        <g
           id="g36"
           style="stroke-width:2;stroke-linecap:round;stroke-linejoin:round;stroke-miterlimit:4;stroke-dasharray:none"
           class="UnoptimicedTransforms"
           transform="matrix(1.4667155,0,0,1.4667155,278.40134,75.400331)"
           inkscape:path-effect="#path-effect48">
          <path
             style="fill:none;stroke:#000000;stroke-width:2;stroke-linecap:round;stroke-linejoin:round;stroke-miterlimit:4;stroke-dasharray:none;stroke-opacity:1"
             d="m 53.119974,100.39811 c -0.466162,-1.412005 -1.5255,-5.729326 -5.977695,1.76614 -10.73268,18.06894 -25.812775,4.21155 -25.812775,4.21155 0.372469,-5.24757 18.581816,-14.217756 8.153221,-4.72079 -9.238256,6.52113 -23.369173,-7.913879 -23.369173,-7.913879 4.483271,-14.808382 47.375568,2.67871 47.375568,2.67871 -0.755837,-4.768904 3.524644,-6.806536 3.524644,-6.806536 -4.347413,-7.879689 3.238582,-7.022056 3.238582,-7.022056 0,0 0.467456,4.605986 -3.238582,7.022056 M 72.68334,100.39811 c 0.466162,-1.412005 1.5255,-5.729326 5.977695,1.76614 10.73268,18.06894 25.812775,4.21155 25.812775,4.21155 -0.37247,-5.24757 -18.581816,-14.217756 -8.153221,-4.72079 9.238251,6.52113 23.369171,-7.913879 23.369171,-7.913879 -4.48327,-14.808382 -47.375566,2.67871 -47.375566,2.67871 0.755837,-4.768904 -3.524644,-6.806536 -3.524644,-6.806536 4.347413,-7.879689 -3.238582,-7.022056 -3.238582,-7.022056 0,0 -0.467456,4.605986 3.238582,7.022056"
             id="path35"
             sodipodi:nodetypes="ccccscscc"
             inkscape:original-d="m 53.119974,100.39811 c -0.466162,-1.412005 -1.5255,-5.729326 -5.977695,1.76614 -10.73268,18.06894 -25.812775,4.21155 -25.812775,4.21155 0.372469,-5.24757 18.581816,-14.217756 8.153221,-4.72079 -9.238256,6.52113 -23.369173,-7.913879 -23.369173,-7.913879 4.483271,-14.808382 47.375568,2.67871 47.375568,2.67871 -0.755837,-4.768904 3.524644,-6.806536 3.524644,-6.806536 -4.347413,-7.879689 3.238582,-7.022056 3.238582,-7.022056 0,0 0.467456,4.605986 -3.238582,7.022056" />
          <path
             style="fill:none;stroke:#000000;stroke-width:2;stroke-linecap:round;stroke-linejoin:round;stroke-miterlimit:4;stroke-dasharray:none;stroke-opacity:1"
             d="m 53.119974,100.39811 c 0,0 -12.3177,28.30665 9.826946,35.3712 m 9.73642,-35.3712 c 0,0 12.3177,28.30665 -9.826946,35.3712"
             id="path36"
             sodipodi:nodetypes="cc"
             inkscape:original-d="m 53.119974,100.39811 c 0,0 -12.3177,28.30665 9.826946,35.3712" />
        </g>
        <path
           style="fill:none;stroke:#000000;stroke-width:2;stroke-linecap:round;stroke-linejoin:round;stroke-miterlimit:4;stroke-dasharray:none;stroke-opacity:1"
           d="m 60.252345,82.591248 c 0,0 13.849326,-4.060828 6.818114,-12.735698 m -1.202804,12.735698 c 0,0 -13.849326,-4.060828 -6.818114,-12.735698"
           id="path37"
           class="UnoptimicedTransforms"
           transform="matrix(1.4667155,0,0,1.4667155,278.40134,75.400331)"
           inkscape:original-d="m 60.252345,82.591248 c 0,0 13.849326,-4.060828 6.818114,-12.735698"
           inkscape:path-effect="#path-effect50" />
        <path
           style="fill:none;stroke:#000000;stroke-width:4.40015;stroke-linecap:butt;stroke-linejoin:miter;stroke-miterlimit:4;stroke-dasharray:none;stroke-opacity:1"
           d="m 351.46779,244.83008 c 0,0 19.00562,-12.05382 38.47802,0.52342"
           id="path38"
           sodipodi:nodetypes="cc" />
        <path
           style="fill:none;stroke:#000000;stroke-width:4.40015;stroke-linecap:butt;stroke-linejoin:miter;stroke-miterlimit:4;stroke-dasharray:none;stroke-opacity:1"
           d="m 351.46779,253.2968 c 0,0 19.00562,-12.05382 38.47802,0.52342"
           id="path39"
           sodipodi:nodetypes="cc" />
        <path
           style="color:#000000;fill:#000000;-inkscape-stroke:none"
           d="m 369.27344,229.04492 c -10.78857,0.49419 -17.53828,5.40618 -17.53828,5.40618 l 1.31953,3.75398 c 0,0 17.36188,-11.39044 35.41211,0.51562 l 1.26283,-3.91035 c -7.57943,-4.99945 -13.98305,-6.06194 -20.45619,-5.76543 z"
           id="path40"
           sodipodi:nodetypes="sccccs" />
      </g>
      <rect
         style="fill:none;stroke:#231cff;stroke-width:4;stroke-linejoin:round;stroke-miterlimit:0;stroke-dasharray:8, 4;stroke-dashoffset:0;stroke-opacity:1;paint-order:stroke markers fill"
         id="rect54"
         width="180.58357"
         height="162.28119"
         x="281.85681"
         y="131.16714" />
    </g>
  </g>
</svg>
